<svg width="24" height="17" viewBox="0 0 24 17" fill="none" xmlns="http://www.w3.org/2000/svg">
<path d="M20.7133 1.1397C20.5749 0.942228 20.391 0.780994 20.1771 0.669644C19.9632 0.558294 19.7256 0.500105 19.4845 0.5H2.25C1.85231 0.500447 1.47104 0.658625 1.18983 0.939833C0.908625 1.22104 0.750447 1.60231 0.75 2V13.625H2.67572C2.8075 14.3611 3.19392 15.0273 3.76736 15.5072C4.3408 15.9871 5.06475 16.2501 5.8125 16.2501C6.56025 16.2501 7.2842 15.9871 7.85764 15.5072C8.43108 15.0273 8.8175 14.3611 8.94928 13.625H14.6757C14.8075 14.3611 15.1939 15.0273 15.7674 15.5072C16.3408 15.9871 17.0647 16.2501 17.8125 16.2501C18.5603 16.2501 19.2842 15.9871 19.8576 15.5072C20.4311 15.0273 20.8175 14.3611 20.9493 13.625H23.25V5.11817C23.2504 4.8873 23.1793 4.66197 23.0467 4.47303L20.7133 1.1397ZM8.4375 2H15.1875V6.5H8.4375V2ZM2.25 2H6.9375V6.5H2.25V2ZM5.8125 14.75C5.47874 14.75 5.15248 14.651 4.87498 14.4656C4.59747 14.2802 4.38118 14.0166 4.25345 13.7083C4.12573 13.3999 4.09231 13.0606 4.15742 12.7333C4.22254 12.4059 4.38326 12.1053 4.61926 11.8693C4.85526 11.6333 5.15594 11.4725 5.48328 11.4074C5.81063 11.3423 6.14993 11.3757 6.45828 11.5035C6.76663 11.6312 7.03018 11.8475 7.2156 12.125C7.40103 12.4025 7.5 12.7287 7.5 13.0625C7.4995 13.5099 7.32155 13.9388 7.00519 14.2552C6.68883 14.5716 6.2599 14.7495 5.8125 14.75ZM17.8125 14.75C17.4787 14.75 17.1525 14.651 16.875 14.4656C16.5975 14.2802 16.3812 14.0166 16.2535 13.7083C16.1257 13.3999 16.0923 13.0606 16.1574 12.7333C16.2225 12.4059 16.3833 12.1053 16.6193 11.8693C16.8553 11.6333 17.1559 11.4725 17.4833 11.4074C17.8106 11.3423 18.1499 11.3757 18.4583 11.5035C18.7666 11.6312 19.0302 11.8475 19.2156 12.125C19.401 12.4025 19.5 12.7287 19.5 13.0625C19.4995 13.5099 19.3216 13.9388 19.0052 14.2552C18.6888 14.5716 18.2599 14.7495 17.8125 14.75ZM21.75 12.125H20.8591C20.6587 11.4734 20.2546 10.9033 19.7063 10.4983C19.1579 10.0933 18.4942 9.87474 17.8125 9.87474C17.1308 9.87474 16.4671 10.0933 15.9187 10.4983C15.3704 10.9033 14.9663 11.4734 14.7659 12.125H8.85909C8.65865 11.4734 8.2546 10.9033 7.70627 10.4983C7.15793 10.0933 6.49419 9.87474 5.8125 9.87474C5.13081 9.87474 4.46707 10.0933 3.91873 10.4983C3.3704 10.9033 2.96635 11.4734 2.76591 12.125H2.25V8H21.75V12.125ZM21.75 6.5H16.6875V2H19.4845L21.75 5.23639V6.5Z" fill="white"/>
</svg>
