<svg width="28" height="22" viewBox="0 0 28 22" fill="none" xmlns="http://www.w3.org/2000/svg">
<path d="M27 8.875H23.625V5.325C23.625 4.77187 23.1781 4.325 22.625 4.325H12.7812L9.11563 0.81875C9.06898 0.775087 9.00764 0.750548 8.94375 0.75H1C0.446875 0.75 0 1.19687 0 1.75V20.25C0 20.8031 0.446875 21.25 1 21.25H22.8125C23.2188 21.25 23.5875 21.0031 23.7406 20.625L27.9281 10.25C27.975 10.1313 28 10.0031 28 9.875C28 9.32187 27.5531 8.875 27 8.875ZM21.375 8.875H5.4375C5.03125 8.875 4.6625 9.12187 4.50938 9.5L2.25 15.1V3H8.14062L11.8781 6.575H21.375V8.875Z" fill="#0F5996"/>
</svg>
