<svg width="16" height="16" viewBox="0 0 16 16" fill="none" xmlns="http://www.w3.org/2000/svg">
<path fill-rule="evenodd" clip-rule="evenodd" d="M8.00001 13.9997C11.3137 13.9997 14 11.3133 14 7.99967C14 4.68601 11.3137 1.99967 8.00001 1.99967C4.68634 1.99967 2.00001 4.68601 2.00001 7.99967C2.00001 11.3133 4.68634 13.9997 8.00001 13.9997ZM8.00001 14.6663C11.682 14.6663 14.6667 11.6817 14.6667 7.99967C14.6667 4.31767 11.682 1.33301 8.00001 1.33301C4.31801 1.33301 1.33334 4.31767 1.33334 7.99967C1.33334 11.6817 4.31801 14.6663 8.00001 14.6663Z" fill="white"/>
<path d="M4 11.8766C4 11.5323 4.25733 11.2413 4.6 11.2033C7.17167 10.9186 8.84 10.9443 11.406 11.2096C11.5341 11.223 11.6556 11.2735 11.7555 11.3549C11.8554 11.4362 11.9295 11.5449 11.9687 11.6676C12.0078 11.7904 12.0104 11.9219 11.9761 12.0461C11.9417 12.1702 11.872 12.2817 11.7753 12.3669C8.747 15.0066 7.01633 14.9703 4.21333 12.3696C4.07667 12.2429 4 12.0629 4 11.8769V11.8766Z" fill="white"/>
<path fill-rule="evenodd" clip-rule="evenodd" d="M11.3717 11.5404C8.82602 11.2771 7.18169 11.2524 4.63636 11.5341C4.46502 11.5531 4.33336 11.6994 4.33336 11.8764C4.33336 11.9718 4.37302 12.0621 4.44002 12.1248C5.82936 13.4134 6.88202 13.9958 7.91102 13.9994C8.94369 14.0031 10.053 13.4254 11.5564 12.1154C11.6041 12.0729 11.6385 12.0175 11.6553 11.9558C11.6721 11.8941 11.6707 11.8289 11.6511 11.768C11.6316 11.7071 11.5947 11.6532 11.5451 11.6129C11.4955 11.5726 11.4353 11.5475 11.3717 11.5408V11.5404ZM4.56336 10.8714C7.16202 10.5838 8.85469 10.6098 11.4407 10.8774C11.6335 10.8976 11.8162 10.9734 11.9665 11.0958C12.1168 11.2182 12.2281 11.3817 12.2869 11.5664C12.3457 11.7511 12.3494 11.9489 12.2975 12.1356C12.2456 12.3224 12.1404 12.4899 11.9947 12.6178C10.4697 13.9471 9.19969 14.6711 7.90902 14.6661C6.61469 14.6614 5.40069 13.9251 3.98702 12.6134C3.88581 12.5192 3.80512 12.405 3.75 12.2782C3.69489 12.1513 3.66652 12.0144 3.66669 11.8761C3.6662 11.6276 3.75742 11.3876 3.92288 11.2022C4.08833 11.0167 4.31638 10.8988 4.56336 10.8711V10.8714Z" fill="white"/>
<path d="M10.6667 6.66667C10.6667 7.37391 10.3857 8.05219 9.88563 8.55228C9.38553 9.05238 8.70725 9.33333 8.00001 9.33333C7.29277 9.33333 6.61449 9.05238 6.11439 8.55228C5.61429 8.05219 5.33334 7.37391 5.33334 6.66667C5.33334 5.95942 5.61429 5.28115 6.11439 4.78105C6.61449 4.28095 7.29277 4 8.00001 4C8.70725 4 9.38553 4.28095 9.88563 4.78105C10.3857 5.28115 10.6667 5.95942 10.6667 6.66667Z" fill="white"/>
<path fill-rule="evenodd" clip-rule="evenodd" d="M8.00001 8.66667C8.53044 8.66667 9.03915 8.45595 9.41422 8.08088C9.7893 7.70581 10 7.1971 10 6.66667C10 6.13623 9.7893 5.62753 9.41422 5.25245C9.03915 4.87738 8.53044 4.66667 8.00001 4.66667C7.46958 4.66667 6.96087 4.87738 6.5858 5.25245C6.21072 5.62753 6.00001 6.13623 6.00001 6.66667C6.00001 7.1971 6.21072 7.70581 6.5858 8.08088C6.96087 8.45595 7.46958 8.66667 8.00001 8.66667ZM8.00001 9.33333C8.70725 9.33333 9.38553 9.05238 9.88563 8.55228C10.3857 8.05219 10.6667 7.37391 10.6667 6.66667C10.6667 5.95942 10.3857 5.28115 9.88563 4.78105C9.38553 4.28095 8.70725 4 8.00001 4C7.29277 4 6.61449 4.28095 6.11439 4.78105C5.61429 5.28115 5.33334 5.95942 5.33334 6.66667C5.33334 7.37391 5.61429 8.05219 6.11439 8.55228C6.61449 9.05238 7.29277 9.33333 8.00001 9.33333Z" fill="white"/>
</svg>
