<svg width="32" height="32" viewBox="0 0 32 32" fill="none" xmlns="http://www.w3.org/2000/svg">
<path fill-rule="evenodd" clip-rule="evenodd" d="M15.9998 28.0003C22.6272 28.0003 27.9998 22.6277 27.9998 16.0003C27.9998 9.37299 22.6272 4.00033 15.9998 4.00033C9.3725 4.00033 3.99984 9.37299 3.99984 16.0003C3.99984 22.6277 9.3725 28.0003 15.9998 28.0003ZM15.9998 29.3337C23.3638 29.3337 29.3332 23.3643 29.3332 16.0003C29.3332 8.63633 23.3638 2.66699 15.9998 2.66699C8.63584 2.66699 2.6665 8.63633 2.6665 16.0003C2.6665 23.3643 8.63584 29.3337 15.9998 29.3337Z" fill="#0F5996"/>
<path d="M8 23.7542C8 23.0655 8.51467 22.4835 9.2 22.4075C14.3433 21.8382 17.68 21.8895 22.812 22.4202C23.0683 22.4471 23.3112 22.548 23.511 22.7107C23.7108 22.8734 23.859 23.0908 23.9373 23.3362C24.0157 23.5817 24.0208 23.8447 23.9521 24.0931C23.8835 24.3414 23.744 24.5644 23.5507 24.7348C17.494 30.0142 14.0327 29.9415 8.42667 24.7402C8.15333 24.4868 8 24.1268 8 23.7548V23.7542Z" fill="#0F5996"/>
<path fill-rule="evenodd" clip-rule="evenodd" d="M22.743 23.0819C17.6517 22.5552 14.363 22.5059 9.27235 23.0692C8.92968 23.1072 8.66634 23.3999 8.66634 23.7539C8.66634 23.9445 8.74568 24.1252 8.87968 24.2505C11.6583 26.8279 13.7637 27.9925 15.8217 27.9999C17.887 28.0072 20.1057 26.8519 23.1123 24.2319C23.2079 24.1468 23.2766 24.0359 23.3103 23.9125C23.3439 23.7892 23.341 23.6587 23.3019 23.5369C23.2628 23.4152 23.1891 23.3074 23.0899 23.2268C22.9907 23.1461 22.8702 23.096 22.743 23.0825V23.0819ZM9.12634 21.7439C14.3237 21.1685 17.709 21.2205 22.881 21.7559C23.2665 21.7961 23.632 21.9479 23.9326 22.1926C24.2332 22.4373 24.4559 22.7644 24.5735 23.1338C24.6911 23.5031 24.6984 23.8988 24.5946 24.2722C24.4908 24.6457 24.2803 24.9808 23.989 25.2365C20.939 27.8952 18.399 29.3432 15.8177 29.3332C13.229 29.3239 10.801 27.8512 7.97368 25.2279C7.77125 25.0393 7.60987 24.811 7.49964 24.5573C7.38941 24.3036 7.33268 24.0298 7.33301 23.7532C7.33204 23.2561 7.51448 22.7762 7.84539 22.4053C8.17629 22.0344 8.6324 21.7987 9.12634 21.7432V21.7439Z" fill="#0F5996"/>
<path d="M21.3332 13.3333C21.3332 14.7478 20.7713 16.1044 19.7711 17.1046C18.7709 18.1048 17.4143 18.6667 15.9998 18.6667C14.5853 18.6667 13.2288 18.1048 12.2286 17.1046C11.2284 16.1044 10.6665 14.7478 10.6665 13.3333C10.6665 11.9188 11.2284 10.5623 12.2286 9.5621C13.2288 8.5619 14.5853 8 15.9998 8C17.4143 8 18.7709 8.5619 19.7711 9.5621C20.7713 10.5623 21.3332 11.9188 21.3332 13.3333Z" fill="#0F5996"/>
<path fill-rule="evenodd" clip-rule="evenodd" d="M15.9998 17.3333C17.0607 17.3333 18.0781 16.9119 18.8283 16.1618C19.5784 15.4116 19.9998 14.3942 19.9998 13.3333C19.9998 12.2725 19.5784 11.2551 18.8283 10.5049C18.0781 9.75476 17.0607 9.33333 15.9998 9.33333C14.939 9.33333 13.9216 9.75476 13.1714 10.5049C12.4213 11.2551 11.9998 12.2725 11.9998 13.3333C11.9998 14.3942 12.4213 15.4116 13.1714 16.1618C13.9216 16.9119 14.939 17.3333 15.9998 17.3333ZM15.9998 18.6667C17.4143 18.6667 18.7709 18.1048 19.7711 17.1046C20.7713 16.1044 21.3332 14.7478 21.3332 13.3333C21.3332 11.9188 20.7713 10.5623 19.7711 9.5621C18.7709 8.5619 17.4143 8 15.9998 8C14.5853 8 13.2288 8.5619 12.2286 9.5621C11.2284 10.5623 10.6665 11.9188 10.6665 13.3333C10.6665 14.7478 11.2284 16.1044 12.2286 17.1046C13.2288 18.1048 14.5853 18.6667 15.9998 18.6667Z" fill="#0F5996"/>
</svg>
