<svg width="24" height="24" viewBox="0 0 24 24" fill="none" xmlns="http://www.w3.org/2000/svg">
<path d="M12 22C11.4696 22 10.9609 21.7893 10.5858 21.4142C10.2107 21.0391 10 20.5304 10 20H14C14 20.5304 13.7893 21.0391 13.4142 21.4142C13.0391 21.7893 12.5304 22 12 22ZM20 19H4V17L6 16V10.5C5.94732 9.08912 6.26594 7.68913 6.924 6.44C7.24784 5.86727 7.68943 5.36971 8.21965 4.98015C8.74987 4.59059 9.35666 4.31788 10 4.18V2H13.646C13.0125 2.70801 12.6193 3.59836 12.5228 4.54351C12.4263 5.48865 12.6314 6.4401 13.1087 7.26155C13.586 8.08299 14.3111 8.73229 15.18 9.11643C16.049 9.50057 17.0172 9.59983 17.946 9.4C17.981 9.757 17.998 10.127 17.998 10.5V16L19.998 17V19H20ZM17 8C16.606 7.99935 16.2161 7.9211 15.8523 7.76973C15.4886 7.61836 15.1583 7.39683 14.8801 7.11779C14.602 6.83875 14.3816 6.50766 14.2314 6.14344C14.0813 5.77921 14.0043 5.38897 14.005 4.995C14.0057 4.60104 14.0839 4.21106 14.2353 3.84733C14.3866 3.48361 14.6082 3.15326 14.8872 2.87515C15.1663 2.59704 15.4973 2.37661 15.8616 2.22645C16.2258 2.07629 16.616 1.99935 17.01 2C17.8056 2.00133 18.5682 2.31867 19.1299 2.88222C19.6915 3.44577 20.0063 4.20935 20.005 5.005C20.0037 5.80065 19.6863 6.56319 19.1228 7.12486C18.5592 7.68653 17.7956 8.00133 17 8Z" fill="#0F5996"/>
</svg>
