<svg width="16" height="16" viewBox="0 0 16 16" fill="none" xmlns="http://www.w3.org/2000/svg">
<path d="M14.6667 7.99967L12.4447 10.6663M8.66669 7.99967H14.6667H8.66669ZM14.6667 7.99967L12.4447 5.33301L14.6667 7.99967Z" stroke="black" stroke-linecap="round" stroke-linejoin="round"/>
<path d="M9.33334 4.66681V3.44948C9.33333 3.26506 9.29507 3.08265 9.22096 2.91378C9.14686 2.7449 9.03853 2.59324 8.90282 2.46837C8.76711 2.3435 8.60697 2.24814 8.43253 2.18831C8.25808 2.12849 8.07312 2.10551 7.88934 2.12081L2.55601 2.56481C2.22271 2.59257 1.91202 2.74458 1.68554 2.99069C1.45907 3.23679 1.33336 3.55903 1.33334 3.89348V12.1068C1.33336 12.4413 1.45907 12.7635 1.68554 13.0096C1.91202 13.2557 2.22271 13.4077 2.55601 13.4355L7.88934 13.8801C8.07318 13.8955 8.25819 13.8725 8.43269 13.8126C8.60718 13.7527 8.76735 13.6573 8.90307 13.5324C9.03879 13.4074 9.1471 13.2557 9.22117 13.0867C9.29523 12.9178 9.33343 12.7353 9.33334 12.5508V11.3335" stroke="black" stroke-linecap="round" stroke-linejoin="round"/>
</svg>
